<svg width="174" height="38" viewBox="0 0 174 38" fill="none" xmlns="http://www.w3.org/2000/svg">
<path d="M14.8099 9.13669C11.1162 9.13669 8.27476 11.2473 6.52936 15.2658L4.74331 14.4134C5.72156 12.9848 6.28368 11.3125 6.36696 9.5831H-0.00378418V37.9964H6.56991C6.69175 30.5277 6.44816 28.6607 4.70267 25.251L6.44816 24.3987C8.19355 28.3767 11.0756 30.5277 14.8099 30.5277C20.249 30.5277 24.1863 26.0225 24.1863 19.8119C24.1863 13.6423 20.249 9.13669 14.8099 9.13669ZM12.415 25.4945C8.88358 25.4945 6.48881 23.1811 6.48881 19.8119C6.48881 16.4837 8.88358 14.1699 12.415 14.1699C15.9057 14.1699 18.2599 16.4429 18.2599 19.8119C18.2599 23.2215 15.9057 25.4945 12.415 25.4945Z" fill="#320064"/>
<path d="M38.1081 9.09594C31.4106 9.09594 26.5805 13.6016 26.5805 19.8526C26.5805 26.0629 31.37 30.6089 38.0676 30.6089C43.2631 30.6089 47.4437 27.8895 49.0675 23.5867H43.1007C42.527 24.3756 41.7674 25.0106 40.8894 25.4355C40.0114 25.8604 39.0421 26.062 38.0675 26.0225C35.1043 26.0225 32.9531 24.3174 32.4254 21.7196H49.5139C50.5287 14.6163 45.5361 9.09594 38.1081 9.09594ZM32.3848 18.026C32.6533 16.7297 33.3794 15.5735 34.4303 14.7685C35.4812 13.9636 36.7867 13.5638 38.1081 13.6423C41.1117 13.6423 43.3036 15.347 43.8718 18.026H32.3848Z" fill="#320064"/>
<path d="M60.5951 22.1664V14.0794H66.0746V9.58307C62.4621 9.50188 60.879 9.86741 58.5655 11.1661L57.6725 9.58307C60.4327 8.00002 61.2444 6.78251 61.4879 3.73801H55.6429C55.6429 8.36551 54.7499 9.58307 50.975 9.58307V14.0794H54.5876V22.4096C54.5876 28.9447 57.4289 30.8932 66.1964 30.0001V24.8453C61.6098 25.4133 60.5951 24.7641 60.5951 22.1664Z" fill="#320064"/>
<path d="M74.7606 15.3062C74.7606 14.1291 75.9377 13.3987 77.7238 13.3987C79.875 13.3987 81.1334 14.4134 81.1739 15.8746H86.7754C86.7349 11.7345 83.1222 9.09594 77.6831 9.09594C72.9746 9.09594 69.0373 11.0038 69.0373 15.4686C69.0373 23.4651 81.4987 20.1774 81.4987 24.1958C81.4987 25.4945 80.2809 26.2253 78.2108 26.2253C75.8159 26.2253 74.4765 25.2105 74.4765 23.5463H68.7533C68.7533 27.93 72.4469 30.6089 78.2514 30.6089C83.8935 30.6089 87.4248 28.0519 87.4248 23.9927C87.4248 16.0777 74.7606 19.1626 74.7606 15.3062Z" fill="#320064"/>
<path d="M93.594 0.00390625C92.926 0.00391558 92.273 0.202009 91.7176 0.573136C91.1621 0.944263 90.7293 1.47176 90.4736 2.08891C90.218 2.70606 90.1511 3.38516 90.2815 4.04032C90.4118 4.69548 90.7335 5.29728 91.2058 5.76961C91.6782 6.24195 92.28 6.56362 92.9351 6.69393C93.5903 6.82424 94.2694 6.75734 94.8865 6.5017C95.5037 6.24606 96.0312 5.81316 96.4023 5.25773C96.7734 4.70231 96.9715 4.04931 96.9715 3.38131C96.9715 2.93778 96.8841 2.49859 96.7144 2.08882C96.5446 1.67905 96.2958 1.30673 95.9822 0.993106C95.6686 0.679485 95.2962 0.430709 94.8865 0.260982C94.4767 0.0912543 94.0375 0.00390006 93.594 0.00390625Z" fill="#320064"/>
<path d="M96.5977 9.58307H90.5902V30.0813H96.5977V9.58307Z" fill="#320064"/>
<path d="M125.272 22.1664V14.0794H130.752V9.58307C127.139 9.50188 125.556 9.86741 123.243 11.1661L122.35 9.58307C125.11 8.00002 125.922 6.78251 126.165 3.73801H120.32C120.32 8.36551 119.427 9.58307 115.652 9.58307H114.457C110.844 9.50188 109.261 9.86741 106.948 11.1661L106.055 9.58307C108.815 8.00002 109.627 6.78251 109.87 3.73801H104.025C104.025 8.36551 103.132 9.58307 99.3574 9.58307L99.3575 14.0794H102.97V22.4096C102.97 28.9447 105.811 30.8932 114.579 30.0001V24.8453C109.992 25.4133 108.977 24.7641 108.977 22.1664V14.0794H119.265V22.4096C119.265 28.9447 122.106 30.8932 130.874 30.0001V24.8453C126.287 25.4133 125.272 24.7641 125.272 22.1664Z" fill="#320064"/>
<path d="M144.431 9.09594C137.733 9.09594 132.903 13.6016 132.903 19.8526C132.903 26.0629 137.693 30.6089 144.39 30.6089C149.586 30.6089 153.767 27.8895 155.39 23.5867H149.424C148.85 24.3756 148.09 25.0106 147.212 25.4355C146.334 25.8604 145.365 26.062 144.39 26.0225C141.427 26.0225 139.276 24.3174 138.748 21.7196H155.837C156.852 14.6163 151.859 9.09594 144.431 9.09594ZM138.708 18.026C138.976 16.7298 139.702 15.5735 140.753 14.7686C141.804 13.9637 143.109 13.5639 144.431 13.6423C147.434 13.6423 149.626 15.347 150.195 18.026H138.708Z" fill="#320064"/>
<path d="M165.416 15.5498L163.548 14.7382C164.352 13.1331 164.809 11.3765 164.888 9.58307H159.205V30.0813H165.213V22.2476C165.213 16.7272 167.486 14.7382 173.858 15.2251V9.62386C169.231 9.21788 166.918 10.8414 165.416 15.5498Z" fill="#320064"/>
</svg>
