<svg width="38" height="38" viewBox="0 0 38 38" fill="none" xmlns="http://www.w3.org/2000/svg">
<path d="M32.5749 8.86197C31.851 8.62657 31.0966 8.4979 30.3356 8.48001C30.4789 6.72125 30.0247 4.96558 29.0464 3.49701C28.0681 2.02845 26.6229 0.932904 24.9447 0.387606C23.2665 -0.157691 21.4534 -0.120842 19.7987 0.492193C18.144 1.10523 16.7445 2.25859 15.8267 3.76569C14.3751 2.76162 12.6272 2.27682 10.8658 2.38975C9.10448 2.50267 7.43277 3.20673 6.12132 4.38794C4.80986 5.56915 3.93543 7.15839 3.63956 8.8984C3.34368 10.6384 3.64369 12.4273 4.49102 13.9756C2.75376 14.7973 1.37886 16.2284 0.62758 17.9973C-0.123699 19.7661 -0.199004 21.7493 0.415975 23.5699C1.03095 25.3906 2.29336 26.922 3.96331 27.873C5.63326 28.824 7.59439 29.1283 9.47403 28.7283L11.4435 37.9944H34.7594L31.782 23.9865C33.4702 23.6278 34.9929 22.7221 36.1138 21.4098C37.2348 20.0975 37.8913 18.452 37.9817 16.7285C38.072 15.0049 37.5911 13.2998 36.6135 11.8775C35.636 10.4552 34.2163 9.39519 32.5749 8.86197ZM20.2791 24.716C19.2719 24.9301 18.2323 24.9437 17.2198 24.756C16.2073 24.5683 15.2416 24.1831 14.378 23.6222C13.5144 23.0614 12.7697 22.3359 12.1865 21.4873C11.6032 20.6386 11.1928 19.6834 10.9787 18.6761C10.7893 17.7858 10.8755 16.8589 11.226 16.0188C11.5765 15.1787 12.1745 14.4653 12.9406 13.9736C13.7066 13.4819 14.6043 13.2353 15.514 13.2665C16.4237 13.2977 17.3024 13.6052 18.0329 14.1483C18.4794 13.355 19.157 12.7167 19.9754 12.3181C20.7938 11.9196 21.7141 11.7798 22.6139 11.9175C23.5137 12.0551 24.3503 12.4635 25.0121 13.0884C25.674 13.7133 26.1298 14.525 26.3188 15.4154C26.7512 17.4497 26.3578 19.5724 25.2252 21.3166C24.0925 23.0608 22.3134 24.2836 20.2791 24.716Z" fill="#C896FF"/>
</svg>
