<svg width="212" height="91" viewBox="0 0 212 91" fill="none" xmlns="http://www.w3.org/2000/svg">
<g id="vector">
<path id="Vector" d="M18.4255 36.5671C17.4283 38.0035 15.5763 38.4345 14.2942 39.5837C11.0177 42.6002 7.74117 45.7603 6.45904 50.0696C4.89201 55.0971 5.88923 58.6882 10.3054 62.4229C13.4395 65.1521 17.1434 66.8758 20.7048 68.5996C26.8305 71.4724 33.0987 73.3398 39.5093 75.0635C48.0568 77.3618 56.8892 78.2237 65.4366 80.091C73.1294 81.6711 80.8221 82.2457 88.6573 82.9639C99.4841 83.8257 110.168 83.6822 120.995 83.1076C135.241 82.2457 149.059 79.6602 162.735 75.4945C173.562 72.1907 184.246 68.5996 194.219 63.2848C196.783 61.8484 199.205 60.1246 201.626 58.4009C204.048 56.6772 205.9 54.2352 206.755 51.3624C207.467 49.0641 207.325 46.9094 205.758 44.7548C202.624 40.3019 198.065 38.2908 193.364 36.1362C187.238 33.2633 180.685 32.5451 174.274 31.2523C170.998 30.6777 167.436 30.6778 164.16 30.2469C161.596 29.9596 161.168 29.0977 161.311 26.5121C161.453 25.3629 162.023 24.932 163.02 24.6447C164.73 24.2138 166.297 23.9265 168.006 23.9265C174.132 24.2138 180.258 25.0757 186.098 26.6558C191.797 28.0922 197.353 30.2468 202.339 33.4069C204.475 34.6997 206.755 36.2799 208.037 38.1472C209.889 40.8765 212.596 43.3184 211.883 47.4841C211.456 49.6387 212.026 51.7933 211.598 54.2352C211.029 57.6827 209.034 59.981 206.755 62.1356C199.062 69.8923 188.948 73.3398 179.118 77.2182C168.434 81.2402 157.322 84.4003 146.068 86.555C137.235 88.2787 128.403 89.1406 119.428 89.7151C107.747 90.577 96.35 89.7152 84.8109 88.8533C77.4031 88.2787 69.9953 86.6986 62.5875 86.1241C59.7383 85.8368 57.0316 84.9749 54.3249 84.4003C48.9115 83.2512 43.3557 82.3894 38.0847 80.9529C31.2467 79.2292 24.5512 77.0746 18.283 74.0581C12.7272 71.3288 7.74117 67.5941 3.60989 62.7102C-1.80351 56.5335 -0.521356 47.0531 3.46746 41.7383C6.88645 37.2854 11.3026 34.2688 15.5764 30.8214C16.1462 30.3904 16.8585 30.2468 17.5707 30.3905C18.4255 30.3905 19.1378 30.5341 19.9925 30.5341C20.135 32.4014 17.7132 34.1252 19.4227 36.1362C18.8528 35.9926 18.568 36.2798 18.4255 36.5671ZM130.255 86.8423C131.964 86.9859 133.674 87.5605 134.814 86.986C136.523 86.1241 138.518 85.8368 140.227 85.1185C140.939 84.8312 141.367 84.4004 141.224 83.5385C141.082 82.8203 140.512 82.533 139.8 82.2457C137.235 81.3838 135.241 84.2567 132.677 83.3949C132.534 84.8313 130.682 84.9749 130.255 86.8423Z" fill="#F8E46F"/>
<path id="Vector_2" d="M97.7724 3.67257C100.906 2.37978 104.183 2.09242 107.317 1.80513C121.135 0.225057 134.954 -0.49316 148.772 0.3687C159.884 0.943273 170.853 2.5234 181.823 4.8217C188.233 6.25813 194.216 8.26914 200.342 10.5674C202.336 11.2856 204.331 12.2911 205.471 14.3021C205.898 14.8767 206.325 15.4513 205.756 16.1695C205.186 16.744 204.758 16.4568 204.188 16.1695C201.197 15.0203 198.205 14.0149 195.356 12.7221C194.074 12.1475 192.792 11.8602 191.51 11.7166C188.518 11.4293 185.954 10.1365 182.962 9.56191C176.837 8.55641 170.711 7.69456 164.443 6.97635C156.75 5.97084 149.057 6.1145 141.365 5.82722C136.378 5.68357 131.392 6.11445 126.406 6.40174C119.996 6.68902 113.585 7.55092 107.175 8.41278C100.479 9.27464 93.926 10.4237 87.3729 11.8602C86.2333 12.1475 85.2361 12.5785 84.0964 12.2912C85.0936 11.2857 86.5182 10.5674 85.8059 8.55639C85.521 7.98181 86.2333 7.83822 86.6607 7.98187C87.088 8.12551 87.5154 8.26915 87.8003 8.70008C88.5126 9.4183 89.225 9.99282 89.6523 8.55639C89.7948 7.83817 90.5071 7.69453 91.0769 7.83817C92.6439 8.2691 94.3534 7.55092 95.9204 8.41278C97.0601 9.131 98.4846 8.41276 99.9092 8.12547C100.906 7.98183 100.906 6.68901 100.052 6.11443C98.9121 5.53986 98.1997 4.82171 97.7724 3.67257Z" fill="#F8E46F"/>
<path id="Vector_3" d="M19.1385 35.9922C17.2865 33.9812 19.8507 32.2574 19.7082 30.39C21.5602 30.39 21.9875 28.0917 23.697 27.6608C22.8423 27.6608 21.9876 27.6608 21.1328 27.6608L20.9904 27.5172C25.9764 24.9316 30.8199 22.0587 36.0909 20.0477C39.5099 18.7549 42.7864 17.1749 46.3479 16.6003C47.4875 17.6058 49.3395 17.893 49.7669 19.7604C50.1943 16.8875 49.9093 16.6003 47.0602 16.0257C49.4819 14.8766 51.9037 14.0147 54.468 13.8711C54.6105 14.0147 54.7529 14.0147 54.7529 14.1584C54.6105 14.0147 54.6105 13.8711 54.468 13.8711C54.8954 12.8655 55.7501 12.7219 56.6049 12.7219C56.6049 13.7274 56.6048 14.5893 57.8869 14.5893C57.7445 16.313 57.7445 17.6057 60.1663 16.8875C60.8786 16.7439 61.8757 16.4566 62.873 16.7439C62.1607 18.324 60.5937 18.1804 59.454 18.4677C49.0546 21.7715 38.9401 25.6498 29.1105 30.2464C26.8312 31.2519 24.8368 32.6883 22.6999 33.9811C21.5602 34.843 20.4206 35.5612 19.1385 35.9922ZM53.6132 17.893C54.0406 16.8875 54.0406 16.0257 53.7557 15.1639C53.7557 15.0202 53.4708 15.0202 53.1858 14.7329C52.1886 16.1693 53.3283 17.0312 53.6132 17.893ZM47.2026 18.8986C46.7752 18.8986 46.6328 19.1859 46.6328 19.4732C46.7753 19.7605 46.9177 20.0477 47.2026 20.1914C47.63 20.335 47.63 19.9041 47.63 19.6168C47.63 19.3295 47.4875 19.0422 47.2026 18.8986Z" fill="#F8E46F"/>
<path id="Vector_4" d="M97.7742 3.67261C98.2016 4.82175 98.9139 5.5399 99.9111 6.11447C100.766 6.68905 100.766 7.98187 99.7686 8.12551C98.4865 8.4128 97.062 9.13103 95.7798 8.41282C94.2128 7.40732 92.5033 8.26914 90.9362 7.83821C90.3664 7.69457 89.7966 7.83821 89.5117 8.55643C89.0843 10.1365 88.372 9.56198 87.6597 8.70012C87.3748 8.41284 86.9474 8.12555 86.5201 7.98191C86.0927 7.83826 85.3804 7.98185 85.6653 8.55643C86.52 10.4238 84.9531 11.2857 83.9559 12.2912C83.5285 12.2912 82.9586 12.4348 82.5313 12.4348C81.819 11.573 80.8217 12.0038 79.8245 11.8602C79.6821 8.8437 79.682 8.84375 77.1178 9.84925C76.548 9.27468 75.6932 8.70012 77.1178 7.98191C77.4027 7.83826 77.5452 7.55098 77.6877 7.26369C79.967 6.54547 82.2464 5.8272 84.6681 5.68356C85.9503 5.53992 87.5173 6.11449 88.6569 4.96534C88.9419 4.96534 89.0843 4.96534 89.3692 4.96534C90.5089 6.11449 91.2211 4.82175 92.0759 4.39082C92.3608 4.39082 92.6458 4.39077 92.9307 4.24713C93.3581 4.24713 93.7854 4.1035 94.0703 3.81621C94.3552 3.81621 94.4977 3.67261 94.7826 3.67261C95.0675 3.95989 95.21 3.95989 95.4949 3.67261H95.7798H96.0648C96.7771 3.52896 97.2044 3.67261 97.7742 3.67261Z" fill="#F8E46F"/>
<path id="Vector_5" d="M63.0158 16.7437C62.1611 16.4565 61.1638 16.7437 60.3091 16.8874C57.8873 17.4619 57.8873 16.1692 58.0298 14.5891C58.3147 14.0145 58.742 13.44 58.5996 12.7217C58.8845 12.5781 59.027 12.2908 59.3119 12.1471C59.5968 12.0035 59.8817 12.0035 60.0242 11.8598C61.7337 11.7162 63.3007 11.8599 65.0102 11.5726C66.2923 11.429 67.0047 10.8544 67.5745 9.84888C68.0019 9.84888 68.4292 9.84886 68.8566 9.56158C69.4264 9.56158 69.8538 9.41797 70.4237 9.41797C70.9935 9.99254 71.5633 9.99247 72.2756 9.70519C73.2728 9.4179 73.9851 9.84888 74.5549 10.5671C74.9823 11.429 75.2672 12.2908 75.2672 13.1527C74.8398 13.4399 74.5549 13.7272 74.5549 14.3018C73.4152 15.02 72.2756 15.02 71.1359 15.3073C70.7086 15.02 70.1387 14.3018 69.8538 14.3018C68.0018 15.02 65.58 14.7327 64.2979 16.7437C63.7281 16.7437 63.4432 16.7437 63.0158 16.7437Z" fill="#F8E46F"/>
<path id="Vector_6" d="M74.4093 10.424C73.8395 9.70578 73.1272 9.27489 72.13 9.56217C71.4177 9.70582 70.8478 9.84944 70.278 9.27487C72.5573 7.83844 75.2641 7.98213 77.6858 7.26392C77.5434 7.5512 77.2584 7.83849 77.116 7.98213C75.5489 8.55671 76.5461 9.13126 77.116 9.84948C77.116 10.1368 77.116 10.2804 77.116 10.5677C76.2612 10.4241 75.4065 10.424 74.4093 10.424Z" fill="#F8E46F"/>
<path id="Vector_7" d="M64.1525 16.6005C65.4346 14.4459 67.8564 14.8768 69.7084 14.1586C69.9933 14.0149 70.5631 14.7332 70.9904 15.1641C68.7111 15.7387 66.5742 17.1751 64.1525 16.6005Z" fill="#F8E46F"/>
<path id="Vector_8" d="M67.573 9.70557C67.0032 10.7111 66.2909 11.2857 65.0087 11.4293C63.2992 11.7166 61.7322 11.573 60.0227 11.7166C62.4445 10.7111 65.0088 10.1365 67.573 9.70557Z" fill="#F8E46F"/>
<path id="Vector_9" d="M74.4114 10.4236C75.2661 10.4236 76.2633 10.4236 77.118 10.4236C77.5454 11.2854 77.8303 12.4346 79.1125 12.4346C79.1125 12.5783 79.1125 12.7219 79.1125 12.8655C78.97 13.0092 78.8275 13.1528 78.5426 13.1528C77.4029 13.1528 76.2633 13.0092 75.1237 13.0092C75.2661 12.1474 74.9812 11.2854 74.4114 10.4236Z" fill="#F8E46F"/>
<path id="Vector_10" d="M47.0583 15.8818C49.9075 16.4564 50.1924 16.8873 49.765 19.6165C49.3377 17.7492 47.6281 17.4619 46.346 16.4564C46.4885 16.1691 46.6309 15.8818 47.0583 15.8818Z" fill="#F8E46F"/>
<path id="Vector_11" d="M75.1246 13.0098C76.2642 13.0098 77.4038 13.1534 78.5435 13.1534C77.2614 13.8716 75.8368 14.3025 74.2698 14.0152C74.4122 13.7279 74.6972 13.2971 75.1246 13.0098Z" fill="#F8E46F"/>
<path id="Vector_12" d="M79.1132 13.0093C79.1132 12.8657 79.1132 12.722 79.1132 12.5783C79.3981 12.291 79.683 12.1474 79.8254 11.8601C80.6802 12.0038 81.8199 11.5729 82.5322 12.4347C81.6774 13.4402 80.3953 12.8657 79.1132 13.0093Z" fill="#F8E46F"/>
<path id="Vector_13" d="M19.7071 30.39C18.8523 30.39 18.14 30.2464 17.2853 30.2464C17.7127 29.0972 18.5674 28.5226 19.7071 28.2354L19.8496 28.379C19.8496 29.0972 19.7071 29.6718 19.7071 30.39Z" fill="#F8E46F"/>
<path id="Vector_14" d="M58.5976 12.5784C58.7401 13.2966 58.1703 13.8713 58.0278 14.4459C56.7457 14.4459 56.6032 13.5839 56.7457 12.5784C57.0306 12.5784 57.173 12.4348 57.458 12.4348C57.7429 12.5785 58.1702 12.5784 58.5976 12.5784Z" fill="#F8E46F"/>
<path id="Vector_15" d="M92.2205 4.3905C91.3658 4.96507 90.7959 6.11417 89.5138 4.96502C90.2261 4.24681 91.2233 4.24686 92.2205 4.3905Z" fill="#F8E46F"/>
<path id="Vector_16" d="M88.799 4.96536C87.6593 6.1145 86.0923 5.39629 84.8102 5.68357C85.9498 4.67807 87.3744 4.96536 88.799 4.96536Z" fill="#F8E46F"/>
<path id="Vector_17" d="M58.5988 12.5784C58.1715 12.5784 57.7441 12.4348 57.3168 12.4348C57.8866 11.8602 58.5988 11.8602 59.3111 12.0039C59.1687 12.2912 58.8838 12.4348 58.5988 12.5784Z" fill="#F8E46F"/>
<path id="Vector_18" d="M94.2111 3.81614C93.9261 4.24707 93.4988 4.24705 93.0714 4.24705C93.2139 3.67247 93.7837 3.81614 94.2111 3.81614Z" fill="#F8E46F"/>
<path id="Vector_19" d="M68.856 9.41845C68.5711 9.70574 68.1437 9.84931 67.5739 9.70567C68.0013 9.27474 68.4286 9.27481 68.856 9.41845Z" fill="#F8E46F"/>
<path id="Vector_20" d="M19.7079 28.2353C19.9929 27.6607 20.4203 27.5171 20.9901 27.5171L21.1325 27.6607C20.8476 28.2353 20.4202 28.3789 19.7079 28.2353Z" fill="#F8E46F"/>
<path id="Vector_21" d="M96.2074 3.52882H95.9225H95.6376C95.9225 3.24153 96.065 3.24153 96.2074 3.52882Z" fill="#F8E46F"/>
<path id="Vector_22" d="M95.6379 3.52881C95.353 3.95974 95.2106 3.95974 94.9257 3.52881C95.2106 3.52881 95.353 3.52881 95.6379 3.52881Z" fill="#F8E46F"/>
<path id="Vector_23" d="M18.4276 36.5667C18.5701 36.2794 18.855 35.9922 19.2823 35.9922C19.1399 36.4231 18.7125 36.5667 18.4276 36.5667Z" fill="#F8E46F"/>
<path id="Vector_24" d="M130.255 86.8421C130.683 85.1184 132.535 84.9748 132.82 83.3948C135.384 84.2566 137.378 81.3837 139.942 82.2455C140.655 82.5328 141.225 82.8201 141.367 83.5384C141.51 84.4002 140.94 84.8311 140.37 85.1184C138.66 85.8366 136.666 86.124 134.956 86.9858C133.674 87.5604 131.965 86.8421 130.255 86.8421Z" fill="#F8E46F"/>
<path id="Vector_25" d="M19.8505 28.3789C20.4203 28.2352 20.8476 28.0916 21.1325 27.6606C21.9873 27.6606 22.842 27.6606 23.6967 27.6606C21.9873 28.0916 21.5599 30.2463 19.7079 30.3899C19.7079 29.6717 19.8505 29.0971 19.8505 28.3789Z" fill="#F8E46F"/>
<path id="Vector_26" d="M53.6127 17.8934C53.3278 16.8879 52.1881 16.0261 53.1853 14.877C53.4702 15.0206 53.7552 15.1642 53.7552 15.3079C54.0401 16.0261 54.0401 17.0316 53.6127 17.8934Z" fill="#F8E46F"/>
<path id="Vector_27" d="M47.2022 18.8984C47.6296 19.0421 47.7721 19.1857 47.7721 19.6167C47.7721 19.9039 47.6296 20.3349 47.3447 20.1913C47.0598 20.1913 46.7748 19.7603 46.7748 19.473C46.4899 19.1858 46.7748 19.0421 47.2022 18.8984Z" fill="#F8E46F"/>
<path id="Vector_28" d="M54.4692 13.728C54.6116 13.8717 54.6117 14.0152 54.7541 14.0152C54.7541 14.0152 54.6116 13.8717 54.4692 13.728Z" fill="#F8E46F"/>
<path id="Vector_29" d="M79.9675 11.7168C79.6825 12.0041 79.3976 12.1478 79.2552 12.4351C77.973 12.2914 77.8306 11.2859 77.2608 10.424C77.2608 10.1367 77.2608 9.99308 77.2608 9.70579C79.825 8.84393 79.825 8.84397 79.9675 11.7168Z" fill="#F8E46F"/>
</g>
</svg>
