<svg width="115" height="109" viewBox="0 0 115 109" fill="none" xmlns="http://www.w3.org/2000/svg">
<path id="misc-44" d="M54.6827 40.7033C59.5321 35.783 64.5295 31.9586 70.4752 29.0008C77.8802 25.3272 85.9257 22.647 95.6145 22.5503C107.851 22.4241 118.369 28.6264 113.955 40.3747C110.739 48.9651 104.276 55.5312 97.747 62.0228C84.8789 74.8016 68.7195 84.5304 51.4643 93.2089C48.7674 94.5692 46.1524 96.0388 43.2941 97.208C40.5663 98.3074 40.8195 99.6921 43.4982 101.7C44.2832 102.284 44.979 102.961 45.6667 103.621C46.1955 104.116 46.5353 104.752 46.2442 105.196C45.8689 105.787 45.0045 105.75 44.1848 105.352C42.9083 104.742 41.4183 104.221 40.4756 103.344C37.5269 100.61 35.2885 101.015 32.8657 102.307C28.7221 104.519 24.0019 106.003 19.0447 107.113C17.4283 107.473 15.429 108.972 13.7908 107.072C12.3414 105.379 14.9329 104.705 16.0724 103.917C19.9101 101.294 23.7591 98.651 27.9858 96.4208C30.5972 95.052 30.7962 93.7611 28.6992 90.9289C19.1637 78.1363 11.0398 65.0257 5.99278 51.3409C1.55019 39.3106 -0.651998 27.5963 2.14755 16.6456C3.7519 10.3576 7.37286 5.34195 13.9211 2.34198C21.6759 -1.2169 31.3723 1.00258 38.8877 8.15359C46.2468 15.1675 49.7251 23.0856 52.3461 31.1118C53.2878 34.0043 53.7737 36.9038 54.6883 40.6935L54.6827 40.7033ZM58.0641 53.1024C56.746 55.0517 55.5461 57.0785 54.0468 58.9027C53.0389 60.1229 51.2225 60.2961 49.1593 59.2936C47.2999 58.377 46.3448 57.0186 46.3031 55.4544C46.273 54.1534 46.389 52.8811 46.5131 51.6261C47.0378 46.5574 47.2371 41.4259 46.1209 36.0357C44.4473 28.0279 41.679 20.1009 35.2381 12.6526C30.0333 6.63967 23.3238 4.9785 17.6082 8.16516C13.7524 10.3161 11.3328 13.4598 9.97316 17.3387C8.04388 22.8706 8.00545 28.8866 8.99268 35.1309C11.9819 53.8789 22.2619 71.9221 33.7033 89.8313C35.3685 92.4396 36.7593 91.3395 38.1193 90.6078C45.5958 86.6523 53.1872 82.8112 60.483 78.6667C76.6766 69.4449 90.9206 58.5506 101.599 44.7383C103.985 41.6532 106.308 38.4568 106.918 34.4365C107.381 31.3635 106.047 30.0031 102.137 29.4784C98.4786 28.9885 95.0541 29.1922 91.8269 29.9023C76.0336 33.4221 64.7043 41.0972 58.0503 53.0949L58.0641 53.1024Z" fill="#320064"/>
</svg>
