<svg width="32" height="32" viewBox="0 0 32 32" fill="none" xmlns="http://www.w3.org/2000/svg">
<path id="Shape" fill-rule="evenodd" clip-rule="evenodd" d="M1.08579 1.08579C1.86683 0.304738 3.13317 0.304738 3.91421 1.08579L16 13.1716L28.0858 1.08579C28.8668 0.304738 30.1332 0.304738 30.9142 1.08579C31.6953 1.86683 31.6953 3.13317 30.9142 3.91421L18.8284 16L30.9142 28.0858C31.6953 28.8668 31.6953 30.1332 30.9142 30.9142C30.1332 31.6953 28.8668 31.6953 28.0858 30.9142L16 18.8284L3.91421 30.9142C3.13317 31.6953 1.86683 31.6953 1.08579 30.9142C0.304738 30.1332 0.304738 28.8668 1.08579 28.0858L13.1716 16L1.08579 3.91421C0.304738 3.13317 0.304738 1.86683 1.08579 1.08579Z" fill="#320064"/>
</svg>
