<svg xmlns="http://www.w3.org/2000/svg" width="37" height="48" viewBox="0 0 37 48" fill="none">
  <ellipse cx="18.5" cy="18.0468" rx="16.087" ry="15.6928" fill="#A655FF"/>
  <path d="M29.3973 13.6546C28.9492 13.3972 28.465 13.2049 27.9601 13.0837C28.3153 11.96 28.2714 10.7523 27.8356 9.65598C27.3998 8.55964 26.5976 7.63879 25.5588 7.0424C24.5199 6.44601 23.3052 6.20896 22.1111 6.3696C20.917 6.53025 19.8134 7.07919 18.9788 7.92762C18.1588 7.06537 17.0645 6.4983 15.8731 6.3182C14.6816 6.1381 13.4627 6.35551 12.4137 6.93524C11.3647 7.51497 10.5469 8.42309 10.0928 9.5126C9.63865 10.6021 9.57473 11.8092 9.91138 12.9386C8.63142 13.2231 7.50318 13.9563 6.74105 14.999C5.97893 16.0417 5.63602 17.3212 5.7775 18.5943C5.91897 19.8674 6.53497 21.0455 7.50844 21.9047C8.4819 22.7638 9.745 23.2442 11.0577 23.2545C11.0577 23.2545 12.0214 31.7595 12.0004 34.2246C18.2615 34.2111 19.5931 34.2082 26.0878 34.1942C26.2326 30.4717 26.6363 23.3809 26.6363 23.3809C27.8153 23.3906 28.9645 23.0205 29.9058 22.328C30.8471 21.6356 31.5279 20.6595 31.8425 19.5511C32.1571 18.4428 32.088 17.2641 31.6459 16.198C31.2038 15.1318 30.4134 14.2378 29.3973 13.6546ZM18.8566 22.1995C18.1531 22.1938 17.4578 22.053 16.8102 21.7851C16.1625 21.5173 15.5753 21.1276 15.0821 20.6383C14.5889 20.1491 14.1992 19.5699 13.9355 18.9338C13.6717 18.2976 13.539 17.6171 13.5448 16.9309C13.5498 16.3243 13.7442 15.7337 14.1019 15.2375C14.4596 14.7414 14.9638 14.3634 15.5473 14.1537C16.1308 13.9441 16.7659 13.9128 17.3681 14.0641C17.9702 14.2154 18.5109 14.542 18.918 15.0005C19.3329 14.5487 19.879 14.2308 20.4837 14.0894C21.0883 13.9479 21.7228 13.9895 22.3026 14.2085C22.8825 14.4276 23.3801 14.8138 23.7294 15.3156C24.0786 15.8175 24.2628 16.4113 24.2575 17.0178C24.2457 18.4036 23.67 19.7281 22.6571 20.6998C21.6443 21.6716 20.2772 22.211 18.8566 22.1995Z" fill="white"/>
  <path fill-rule="evenodd" clip-rule="evenodd" d="M20.7836 46.9244C25.7266 40.89 37 26.2646 37 18.0496C37 8.08635 28.7135 0.00292969 18.5 0.00292969C8.28646 0.00292969 0 8.08635 0 18.0496C0 26.2646 11.2734 40.89 16.2164 46.9244C17.4016 48.3625 19.5984 48.3625 20.7836 46.9244ZM18.4997 33.7424C27.3843 33.7424 34.5867 26.7165 34.5867 18.0496C34.5867 9.38273 27.3843 2.35683 18.4997 2.35683C9.61514 2.35683 2.41277 9.38273 2.41277 18.0496C2.41277 26.7165 9.61514 33.7424 18.4997 33.7424Z" fill="#A655FF"/>
</svg>