<svg width="88" height="60" viewBox="0 0 88 60" fill="none" xmlns="http://www.w3.org/2000/svg">
<g id="btn arrow line">
<rect id="Rectangle" x="-1" y="1" width="86" height="58" rx="29" transform="matrix(-1 0 0 1 86 0)" stroke="#320064" stroke-width="2"/>
<path id="Vector" d="M24.364 31.0299L39.3006 45.9664C39.5366 46.1863 39.8487 46.306 40.1711 46.3003C40.4936 46.2946 40.8013 46.164 41.0293 45.9359C41.2574 45.7079 41.388 45.4002 41.3937 45.0778C41.3994 44.7553 41.2797 44.4432 41.0598 44.2072L28.2496 31.395H61.7553C62.0854 31.395 62.402 31.2638 62.6354 31.0304C62.8689 30.797 63 30.4804 63 30.1503C63 29.8201 62.8689 29.5035 62.6354 29.2701C62.402 29.0367 62.0854 28.9055 61.7553 28.9055H28.2496L41.0598 16.0933C41.2797 15.8573 41.3994 15.5452 41.3937 15.2228C41.388 14.9003 41.2574 14.5926 41.0293 14.3646C40.8013 14.1365 40.4936 14.0059 40.1711 14.0002C39.8487 13.9945 39.5366 14.1142 39.3006 14.3341L24.364 29.2707C24.1309 29.504 24 29.8204 24 30.1503C24 30.4801 24.1309 30.7965 24.364 31.0299Z" fill="#320064"/>
</g>
</svg>
