<svg width="40" height="36" viewBox="0 0 40 36" fill="none" xmlns="http://www.w3.org/2000/svg">
<path d="M20.2475 29.7144L20.0005 29.5738L19.7533 29.714L10.0536 35.2166L10.0527 35.2172C9.34453 35.6208 8.56262 35.5252 8.00013 35.14C7.43952 34.756 7.12647 34.1098 7.30316 33.3943L9.87411 23.0056L9.95017 22.6982L9.70486 22.498L1.12704 15.4987L1.12687 15.4986C-0.0486529 14.5403 0.522074 12.6571 2.18054 12.5329L2.18303 12.5327L13.4721 11.6302L13.7666 11.6067L13.888 11.3374L18.3055 1.5427L18.3064 1.5407C18.6098 0.860041 19.2853 0.5 20 0.5C20.7147 0.5 21.3902 0.860041 21.6936 1.5407L21.6943 1.54232L26.1118 11.359L26.2331 11.6287L26.5279 11.6522L37.817 12.5547L37.8195 12.5549C39.4779 12.6791 40.0486 14.5623 38.8731 15.5206L38.873 15.5207L30.2951 22.5201L30.0498 22.7202L30.1259 23.0276L32.6968 33.4163C32.8735 34.1318 32.5605 34.778 31.9999 35.162C31.4374 35.5472 30.6555 35.6428 29.9473 35.2392L29.9472 35.2391L20.2475 29.7144Z" fill="#F8E46F" stroke="#F8E46F"/>
</svg>
