<svg width="48" height="48" viewBox="0 0 48 48" fill="none" xmlns="http://www.w3.org/2000/svg">
<g id="TG">
<path id="Vector" d="M24 3C12.408 3 3 12.408 3 24C3 35.592 12.408 45 24 45C35.592 45 45 35.592 45 24C45 12.408 35.592 3 24 3ZM33.744 17.28C33.429 20.598 32.064 28.662 31.371 32.379C31.077 33.954 30.489 34.479 29.943 34.542C28.725 34.647 27.801 33.744 26.625 32.967C24.777 31.749 23.727 30.993 21.942 29.817C19.863 28.452 21.207 27.696 22.404 26.478C22.719 26.163 28.095 21.27 28.2 20.829C28.2146 20.7622 28.2126 20.6929 28.1943 20.627C28.176 20.5611 28.1419 20.5007 28.095 20.451C27.969 20.346 27.801 20.388 27.654 20.409C27.465 20.451 24.525 22.404 18.792 26.268C17.952 26.835 17.196 27.129 16.524 27.108C15.768 27.087 14.34 26.688 13.269 26.331C11.946 25.911 10.917 25.68 11.001 24.945C11.043 24.567 11.568 24.189 12.555 23.79C18.687 21.123 22.761 19.359 24.798 18.519C30.636 16.083 31.833 15.663 32.631 15.663C32.799 15.663 33.198 15.705 33.45 15.915C33.66 16.083 33.723 16.314 33.744 16.482C33.723 16.608 33.765 16.986 33.744 17.28Z" fill="#320064"/>
</g>
</svg>
