<svg width="48" height="48" viewBox="0 0 48 48" fill="none" xmlns="http://www.w3.org/2000/svg">
<g id="whatsapp">
<path id="Vector" d="M43.98 13.094C43.9633 12.2359 43.8945 11.3797 43.774 10.53C43.6303 9.7742 43.3862 9.04103 43.048 8.35C42.3077 6.8886 41.121 5.70115 39.66 4.96C38.9734 4.62343 38.245 4.37994 37.494 4.236C36.6378 4.11297 35.7748 4.04283 34.91 4.026C34.544 4.012 34.07 4.006 33.85 4.006L14.154 4C13.934 4 13.46 4.006 13.094 4.02C12.2359 4.03653 11.3797 4.10533 10.53 4.226C9.7742 4.36968 9.04103 4.61385 8.35 4.952C6.88869 5.6924 5.70126 6.87912 4.96 8.34C4.62351 9.02663 4.38004 9.75504 4.236 10.506C4.11241 11.3622 4.04161 12.2251 4.024 13.09C4.012 13.456 4.004 13.93 4.004 14.15L4 33.846C4 34.066 4.006 34.54 4.02 34.906C4.03653 35.7641 4.10533 36.6203 4.226 37.47C4.3697 38.2258 4.61387 38.959 4.952 39.65C5.6924 41.1113 6.87912 42.2987 8.34 43.04C9.02665 43.3764 9.75505 43.6199 10.506 43.764C11.3622 43.8871 12.2252 43.9572 13.09 43.974C13.456 43.988 13.93 43.994 14.15 43.994L33.846 43.998C34.066 43.998 34.54 43.992 34.906 43.978C35.7641 43.9614 36.6203 43.8926 37.47 43.772C38.2258 43.6282 38.9589 43.3841 39.65 43.046C41.1121 42.3059 42.3002 41.1192 43.042 39.658C43.3785 38.9714 43.622 38.243 43.766 37.492C43.8897 36.6358 43.9605 35.7729 43.978 34.908C43.99 34.542 43.998 34.068 43.998 33.848L44 14.154C44 13.934 43.994 13.46 43.98 13.094ZM24.434 37.914H24.428C22.0473 37.9135 19.7047 37.3167 17.614 36.178L10.054 38.16L12.078 30.774C10.5109 28.0546 9.88474 24.8942 10.2966 21.7828C10.7085 18.6713 12.1353 15.7827 14.3559 13.5647C16.5766 11.3467 19.4669 9.92324 22.5789 9.51509C25.6908 9.10694 28.8505 9.73686 31.568 11.3072C34.2855 12.8775 36.409 15.3005 37.6093 18.2005C38.8096 21.1005 39.0196 24.3155 38.2068 27.347C37.394 30.3785 35.6037 33.0572 33.1136 34.9677C30.6235 36.8782 27.5726 37.9138 24.434 37.914Z" fill="#320064"/>
<path id="Vector_2" d="M24.44 11.7989C22.3222 11.7983 20.2428 12.365 18.4182 13.4402C16.5937 14.5155 15.0905 16.0599 14.0649 17.9129C13.0394 19.7658 12.5291 21.8597 12.5869 23.9768C12.6448 26.0938 13.2688 28.1567 14.394 29.9509L14.676 30.3989L13.478 34.7709L17.964 33.5949L18.396 33.8509C20.2222 34.9324 22.3056 35.503 24.428 35.5029H24.434C27.5776 35.5034 30.5927 34.2551 32.8159 32.0326C35.0392 29.8101 36.2885 26.7955 36.289 23.6519C36.2895 20.5083 35.0412 17.4932 32.8187 15.27C30.5962 13.0467 27.5816 11.7974 24.438 11.7969L24.44 11.7989ZM31.408 28.7389C31.1458 29.1718 30.7969 29.5458 30.3832 29.8374C29.9695 30.1289 29.4999 30.3316 29.004 30.4329C28.2553 30.5613 27.4869 30.5133 26.76 30.2929C26.0706 30.078 25.393 29.827 24.73 29.5409C22.2694 28.3061 20.1722 26.4528 18.644 24.1629C17.8103 23.1028 17.3043 21.8224 17.188 20.4789C17.1784 19.9243 17.2844 19.3738 17.4993 18.8625C17.7141 18.3511 18.0331 17.8901 18.436 17.5089C18.555 17.3731 18.7009 17.2633 18.8644 17.1866C19.0279 17.1098 19.2054 17.0677 19.386 17.0629C19.622 17.0629 19.86 17.0629 20.068 17.0749C20.288 17.0849 20.58 16.9909 20.868 17.6869C21.168 18.3989 21.88 20.1529 21.968 20.3309C22.0245 20.4242 22.0568 20.5301 22.062 20.6391C22.0673 20.748 22.0453 20.8566 21.998 20.9549C21.9083 21.1688 21.7884 21.3689 21.642 21.5489C21.462 21.7569 21.268 22.0129 21.108 22.1729C20.928 22.3509 20.744 22.5429 20.95 22.8989C21.485 23.815 22.153 24.6467 22.932 25.3669C23.7773 26.1184 24.7471 26.7167 25.798 27.1349C26.154 27.3149 26.362 27.2829 26.57 27.0449C26.778 26.8069 27.46 26.0049 27.698 25.6489C27.936 25.2929 28.172 25.3529 28.498 25.4709C28.824 25.5889 30.578 26.4509 30.934 26.6309C31.29 26.8109 31.528 26.8969 31.616 27.0449C31.7135 27.6177 31.6412 28.2066 31.408 28.7389Z" fill="#320064"/>
</g>
</svg>
